HIERARCHY
ROOT hip
{
  OFFSET 0 0 0
  CHANNELS 6 Xposition Yposition Zposition Zrotation Yrotation Xrotation
  JOINT abdomen
  {
    OFFSET 0 20.6881 -0.73152
    CHANNELS 3 Zrotation Xrotation Yrotation
    JOINT chest
    {
      OFFSET 0 11.7043 -0.48768
      CHANNELS 3 Zrotation Xrotation Yrotation
      JOINT neck
      {
        OFFSET 0 22.1894 -2.19456
        CHANNELS 3 Zrotation Xrotation Yrotation
        JOINT head
        {
          OFFSET -0.24384 7.07133 1.2192
          CHANNELS 3 Zrotation Xrotation Yrotation
          JOINT leftEye
          {
            OFFSET 4.14528 8.04674 8.04672
            CHANNELS 3 Zrotation Xrotation Yrotation
            End Site
            {
              OFFSET 1 0 0
            }
          }
          JOINT rightEye
          {
            OFFSET -3.6576 8.04674 8.04672
            CHANNELS 3 Zrotation Xrotation Yrotation
            End Site
            {
              OFFSET 1 0 0
            }
          }
        }
      }
      JOINT rCollar
      {
        OFFSET -2.68224 19.2634 -4.8768
        CHANNELS 3 Zrotation Xrotation Yrotation
        JOINT rShldr
        {
          OFFSET -8.77824 -1.95073 1.46304
          CHANNELS 3 Zrotation Xrotation Yrotation
          JOINT rForeArm
          {
            OFFSET -28.1742 -1.7115 0.48768
            CHANNELS 3 Zrotation Xrotation Yrotation
            JOINT rHand
            {
              OFFSET -22.5879 0.773209 7.07136
              CHANNELS 3 Zrotation Xrotation Yrotation
              JOINT rThumb1
              {
                OFFSET -1.2192 -0.487915 3.41376
                CHANNELS 3 Zrotation Xrotation Yrotation
                JOINT rThumb2
                {
                  OFFSET -3.37035 -0.52449 3.41376
                  CHANNELS 3 Zrotation Xrotation Yrotation
                  End Site
                  {
                    OFFSET -1.78271 -1.18214 1.43049
                  }
                }
              }
              JOINT rIndex1
              {
                OFFSET -7.75947 0.938293 5.60832
                CHANNELS 3 Zrotation Xrotation Yrotation
                JOINT rIndex2
                {
                  OFFSET -2.54057 -0.884171 1.56538
                  CHANNELS 3 Zrotation Xrotation Yrotation
                  End Site
                  {
                    OFFSET -1.62519 -0.234802 1.16502
                  }
                }
              }
              JOINT rMid1
              {
                OFFSET -8.24714 1.18213 3.41376
                CHANNELS 3 Zrotation Xrotation Yrotation
                JOINT rMid2
                {
                  OFFSET -3.10165 -0.590103 1.0647
                  CHANNELS 3 Zrotation Xrotation Yrotation
                  End Site
                  {
                    OFFSET -2.48547 -0.328903 0.83742
                  }
                }
              }
              JOINT rRing1
              {
                OFFSET -8.82822 0.546677 1.51678
                CHANNELS 3 Zrotation Xrotation Yrotation
                JOINT rRing2
                {
                  OFFSET -2.60934 -0.819778 -0.0198488
                  CHANNELS 3 Zrotation Xrotation Yrotation
                  End Site
                  {
                    OFFSET -2.33842 -0.294052 0.168128
                  }
                }
              }
              JOINT rPinky1
              {
                OFFSET -8.27202 -0.0477905 -0.4584
                CHANNELS 3 Zrotation Xrotation Yrotation
                JOINT rPinky2
                {
                  OFFSET -1.82734 -0.647385 -0.700984
                  CHANNELS 3 Zrotation Xrotation Yrotation
                  End Site
                  {
                    OFFSET -1.69225 -0.51767 -0.607171
                  }
                }
              }
            }
          }
        }
      }
      JOINT lCollar
      {
        OFFSET 2.68224 19.2634 -4.8768
        CHANNELS 3 Zrotation Xrotation Yrotation
        JOINT lShldr
        {
          OFFSET 8.77824 -1.95073 1.46304
          CHANNELS 3 Zrotation Xrotation Yrotation
          JOINT lForeArm
          {
            OFFSET 28.1742 -1.7115 0.48768
            CHANNELS 3 Zrotation Xrotation Yrotation
            JOINT lHand
            {
              OFFSET 22.5879 0.773209 7.07136
              CHANNELS 3 Zrotation Xrotation Yrotation
              JOINT lThumb1
              {
                OFFSET 1.2192 -0.487915 3.41376
                CHANNELS 3 Zrotation Xrotation Yrotation
                JOINT lThumb2
                {
                  OFFSET 3.37035 -0.52449 3.41376
                  CHANNELS 3 Zrotation Xrotation Yrotation
                  End Site
                  {
                    OFFSET 1.78271 -1.18214 1.43049
                  }
                }
              }
              JOINT lIndex1
              {
                OFFSET 7.75947 0.938293 5.60832
                CHANNELS 3 Zrotation Xrotation Yrotation
                JOINT lIndex2
                {
                  OFFSET 2.54057 -0.884171 1.56538
                  CHANNELS 3 Zrotation Xrotation Yrotation
                  End Site
                  {
                    OFFSET 1.62519 -0.234802 1.16502
                  }
                }
              }
              JOINT lMid1
              {
                OFFSET 8.24714 1.18213 3.41376
                CHANNELS 3 Zrotation Xrotation Yrotation
                JOINT lMid2
                {
                  OFFSET 3.10165 -0.590103 1.0647
                  CHANNELS 3 Zrotation Xrotation Yrotation
                  End Site
                  {
                    OFFSET 2.48547 -0.328903 0.83742
                  }
                }
              }
              JOINT lRing1
              {
                OFFSET 8.82822 0.546677 1.51678
                CHANNELS 3 Zrotation Xrotation Yrotation
                JOINT lRing2
                {
                  OFFSET 2.60934 -0.819778 -0.0198488
                  CHANNELS 3 Zrotation Xrotation Yrotation
                  End Site
                  {
                    OFFSET 2.33842 -0.294052 0.168128
                  }
                }
              }
              JOINT lPinky1
              {
                OFFSET 8.27202 -0.0477905 -0.4584
                CHANNELS 3 Zrotation Xrotation Yrotation
                JOINT lPinky2
                {
                  OFFSET 1.82734 -0.647385 -0.700984
                  CHANNELS 3 Zrotation Xrotation Yrotation
                  End Site
                  {
                    OFFSET 1.69225 -0.51767 -0.607171
                  }
                }
              }
            }
          }
        }
      }
    }
  }
  JOINT rButtock
  {
    OFFSET -8.77824 4.35084 1.2192
    CHANNELS 3 Zrotation Xrotation Yrotation
    JOINT rThigh
    {
      OFFSET 0 -1.70687 -2.19456
      CHANNELS 3 Zrotation Xrotation Yrotation
      JOINT rShin
      {
        OFFSET 0 -36.8199 0.73152
        CHANNELS 3 Zrotation Xrotation Yrotation
        JOINT rFoot
        {
          OFFSET 0.73152 -45.1104 -5.12064
          CHANNELS 3 Zrotation Xrotation Yrotation
          End Site
          {
            OFFSET -1.1221 -3.69964 12.103
          }
        }
      }
    }
  }
  JOINT lButtock
  {
    OFFSET 8.77824 4.35084 1.2192
    CHANNELS 3 Zrotation Xrotation Yrotation
    JOINT lThigh
    {
      OFFSET 0 -1.70687 -2.19456
      CHANNELS 3 Zrotation Xrotation Yrotation
      JOINT lShin
      {
        OFFSET 0 -36.8199 0.73152
        CHANNELS 3 Zrotation Xrotation Yrotation
        JOINT lFoot
        {
          OFFSET -0.73152 -45.1104 -5.12064
          CHANNELS 3 Zrotation Xrotation Yrotation
          End Site
          {
            OFFSET 1.1221 -3.69964 12.103
          }
        }
      }
    }
  }
}
MOTION
Frames:	4
Frame Time:	0.00833333
1.20842 84.9173 -173.791 0.0 0.0 0.0 -0.140626 -0.000295008 -0.00400528 -0.0387671 -0.000394536 -0.00671567 1.58546e-15 0.0 -1.2424e-17 4.77704e-15 3.18055e-15 -4.50372e-17 -0.0 0.0 0.0 -0.0 0.0 0.0 7.93841e-16 5.82377e-19 9.93923e-17 1.8658e-14 2.60905e-16 7.95139e-16 2.85107e-13 -8.62725e-14 -3.18055e-14 3.26336e-12 8.04829e-14 -9.54166e-15 7.69611e-12 -1.85955e-14 -7.31528e-14 1.3282e-11 -4.13472e-14 -1.30403e-13 7.7037e-12 -1.59028e-14 -7.63333e-14 7.73091 5.47488 0.417314 7.69734e-12 -1.82882e-14 -6.99722e-14 2.90554 0.965183 0.102902 7.70675e-12 -1.78906e-14 -7.55382e-14 10.2786 0.731801 0.0259123 7.69575e-12 -1.94809e-14 -6.67917e-14 2.22167 -0.733487 -0.20892 7.96488e-16 3.88251e-19 -9.93923e-17 1.43464e-14 4.96962e-17 -1.19271e-15 2.82771e-13 8.64713e-14 2.8625e-14 3.26672e-12 -8.15017e-14 -4.77083e-14 7.70064e-12 5.23821e-15 -7.31528e-14 1.32991e-11 0.0 -1.16885e-13 7.69336e-12 7.95139e-15 -6.04305e-14 -7.73091 5.47488 -0.417314 7.69958e-12 5.46658e-15 -7.31528e-14 -2.90554 0.965183 -0.102902 7.688e-12 6.16232e-15 -6.99722e-14 -10.2786 0.731801 -0.0259123 7.70251e-12 4.77083e-15 -7.63333e-14 -2.22167 -0.733487 0.20892 -2.03217e-16 0.0 -3.88251e-19 0.415466 -2.89234 -0.0363698 -0.00657589 -0.313963 -0.0578463 -0.5217 3.20536 0.12542 2.03217e-16 0.0 3.88251e-19 -0.629338 -3.43715 0.0497307 0.00497778 0.672917 0.0432296 0.523129 2.76331 -0.116509
0.993269 83.3099 -174.548 -2.1373 3.138 1.8572 -0.466811 -0.462614 1.23739 1.56405 -1.45647 0.417858 1.97632 -0.471047 -0.329688 -3.72134 -0.134159 -1.27706 -0.0 0.0 0.0 -0.0 0.0 0.0 -2.05061e-14 5.59717e-15 -1.04013e-15 19.936 2.96697 -0.772222 -3.36903 -1.39343 5.40183 0.00150696 -0.861114 -0.120972 4.55214e-10 -8.89755e-10 -4.59419e-11 7.87244e-10 -1.54073e-09 -7.9497e-11 4.5522e-10 -8.89753e-10 -4.59506e-11 7.73091 5.47488 0.417314 4.55215e-10 -8.89755e-10 -4.59415e-11 2.90554 0.965183 0.102902 4.55225e-10 -8.89755e-10 -4.59455e-11 10.2786 0.731801 0.0259123 4.55212e-10 -8.89756e-10 -4.59362e-11 2.22167 -0.733487 -0.20892 -2.05536e-14 5.59729e-15 -1.26842e-15 -22.1863 6.58824 -0.194855 3.24974 -1.32517 -5.22834 -0.00363655 -1.34499 0.188841 5.95243e-10 6.22662e-10 -1.58101e-10 1.02988e-09 1.07788e-09 -2.72318e-10 5.95237e-10 6.22665e-10 -1.58087e-10 -7.73091 5.47488 -0.417314 5.95241e-10 6.22661e-10 -1.58101e-10 -2.90554 0.965183 -0.102902 5.95231e-10 6.22662e-10 -1.58097e-10 -10.2786 0.731801 -0.0259123 5.95243e-10 6.22661e-10 -1.58104e-10 -2.22167 -0.733487 0.20892 -2.03217e-16 0.0 -3.88251e-19 0.156661 -6.01691 -0.96512 0.0236008 8.9136 0.112977 -1.1779 -1.20684 -5.50672 2.03217e-16 0.0 3.88251e-19 0.323842 -7.10239 -0.379061 -0.0112839 9.75635 -0.105285 0.962033 -0.848222 4.36106
0.988987 83.3095 -174.547 -2.1909 3.2158 1.8534 -0.788496 -0.951706 2.55275 3.2839 -2.99442 0.868428 4.06044 -0.972363 -0.677104 -7.66892 -0.269948 -2.6248 -0.0 0.0 0.0 -0.0 0.0 0.0 -4.32985e-14 1.22746e-14 -3.74274e-15 41.0957 6.10138 -1.6003 -6.6456 -2.82478 11.1215 -0.000855996 -1.77187 -0.249011 9.49401e-10 -1.87709e-09 -1.19049e-10 1.64198e-09 -3.25051e-09 -2.05993e-10 9.49405e-10 -1.87709e-09 -1.19064e-10 7.73091 5.47488 0.417314 9.49401e-10 -1.87709e-09 -1.19052e-10 2.90554 0.965183 0.102902 9.49412e-10 -1.87709e-09 -1.19054e-10 10.2786 0.731801 0.0259123 9.49397e-10 -1.87709e-09 -1.19044e-10 2.22167 -0.733487 -0.20892 -4.33993e-14 1.22751e-14 -4.00365e-15 -45.597 13.5532 -0.407768 6.42116 -2.68791 -10.7607 0.00217201 -2.75066 0.386557 1.23953e-09 1.32747e-09 -3.26377e-10 2.14466e-09 2.29799e-09 -5.62145e-10 1.23953e-09 1.32747e-09 -3.26362e-10 -7.73091 5.47488 -0.417314 1.23953e-09 1.32747e-09 -3.26377e-10 -2.90554 0.965183 -0.102902 1.23952e-09 1.32747e-09 -3.26373e-10 -10.2786 0.731801 -0.0259123 1.23953e-09 1.32747e-09 -3.2638e-10 -2.22167 -0.733487 0.20892 -2.03217e-16 0.0 -3.88251e-19 -0.227705 -9.31737 -1.95846 -0.0070528 18.6687 0.306901 -2.81238 -5.76498 -11.5173 2.03217e-16 0.0 3.88251e-19 1.27221 -10.9762 -0.835903 0.0252977 19.359 -0.274801 2.03883 -4.61482 9.12187
1.01353 83.309 -174.548 -2.1165 3.2984 1.855 -1.05911 -1.38465 3.72115 4.83458 -4.36767 1.27029 5.91269 -1.41295 -0.989333 -11.1819 -0.401676 -3.83127 -0.0 0.0 0.0 -0.0 0.0 0.0 -6.31059e-14 1.67903e-14 -3.31916e-15 60.0502 8.8944 -2.34174 -9.32889 -4.03191 16.242 -0.00639724 -2.58329 -0.363245 1.35025e-09 -2.66923e-09 -1.37679e-10 2.33517e-09 -4.62211e-09 -2.3823e-10 1.35025e-09 -2.66923e-09 -1.37699e-10 7.73091 5.47488 0.417314 1.35025e-09 -2.66923e-09 -1.37684e-10 2.90554 0.965183 0.102902 1.35026e-09 -2.66923e-09 -1.37685e-10 10.2786 0.731801 0.0259123 1.35025e-09 -2.66923e-09 -1.37675e-10 2.22167 -0.733487 -0.20892 -6.32539e-14 1.67911e-14 -3.60647e-15 -66.4174 19.7638 -0.617053 9.03238 -3.8433 -15.7171 0.0157438 -4.03478 0.567775 1.77033e-09 1.86797e-09 -4.74156e-10 3.06305e-09 3.23365e-09 -8.16721e-10 1.77032e-09 1.86798e-09 -4.7414e-10 -7.73091 5.47488 -0.417314 1.77033e-09 1.86797e-09 -4.74156e-10 -2.90554 0.965183 -0.102902 1.77032e-09 1.86797e-09 -4.74151e-10 -10.2786 0.731801 -0.0259123 1.77032e-09 1.86797e-09 -4.74159e-10 -2.22167 -0.733487 0.20892 -2.03217e-16 0.0 -3.88251e-19 -0.671187 -12.2537 -2.87225 -0.0973806 27.3679 0.50731 -5.0815 -9.61671 -17.0131 2.03217e-16 0.0 3.88251e-19 2.06081 -14.43 -1.26774 0.11245 27.9225 -0.450147 3.52927 -7.86015 13.4431
